<?xml version="1.0" encoding="UTF-8" standalone="no"?>
<!-- Generator: Adobe Illustrator 13.0.0, SVG Export Plug-In . SVG Version: 6.00 Build 14948)  -->

<svg
   xmlns:dc="http://purl.org/dc/elements/1.1/"
   xmlns:cc="http://creativecommons.org/ns#"
   xmlns:rdf="http://www.w3.org/1999/02/22-rdf-syntax-ns#"
   xmlns:svg="http://www.w3.org/2000/svg"
   xmlns="http://www.w3.org/2000/svg"
   xmlns:sodipodi="http://sodipodi.sourceforge.net/DTD/sodipodi-0.dtd"
   xmlns:inkscape="http://www.inkscape.org/namespaces/inkscape"
   version="1.1"
   id="Layer_1"
   x="0px"
   y="0px"
   width="208.02px"
   height="133.34px"
   viewBox="0 0 208.02 133.34"
   enable-background="new 0 0 208.02 133.34"
   xml:space="preserve"
   inkscape:version="0.47 r22583"
   sodipodi:docname="molino.svg"><metadata
   id="metadata124"><rdf:RDF><cc:Work
       rdf:about=""><dc:format>image/svg+xml</dc:format><dc:type
         rdf:resource="http://purl.org/dc/dcmitype/StillImage" /></cc:Work></rdf:RDF></metadata><defs
   id="defs122"><inkscape:perspective
   sodipodi:type="inkscape:persp3d"
   inkscape:vp_x="0 : 66.669998 : 1"
   inkscape:vp_y="0 : 1000 : 0"
   inkscape:vp_z="208.02 : 66.669998 : 1"
   inkscape:persp3d-origin="104.01 : 44.446665 : 1"
   id="perspective126" />
	
</defs><sodipodi:namedview
   pagecolor="#ffffff"
   bordercolor="#666666"
   borderopacity="1"
   objecttolerance="10"
   gridtolerance="10"
   guidetolerance="10"
   inkscape:pageopacity="0"
   inkscape:pageshadow="2"
   inkscape:window-width="640"
   inkscape:window-height="485"
   id="namedview120"
   showgrid="false"
   inkscape:zoom="1.7699116"
   inkscape:cx="104.01"
   inkscape:cy="66.669998"
   inkscape:window-x="0"
   inkscape:window-y="25"
   inkscape:window-maximized="0"
   inkscape:current-layer="Layer_1" />
<g
   id="XMLID_1_">
		<g
   id="juan">
			<polygon
   style="fill:#ff0000"
   id="polygon6"
   points="202.23,76.01 202.3,75.98 207.73,79.11 207.74,79.11 207.75,79.13 " />
			<polygon
   style="fill:#ff0000"
   id="polygon8"
   points="207.73,79.11 204.63,75.05 203.94,70.19 203.96,70.12 207.74,79.11 " />
			<polygon
   style="fill:#ff0000"
   id="polygon10"
   points="202.3,75.98 204.63,75.05 207.73,79.11 " />
			<polygon
   style="fill:#ff0000"
   id="polygon12"
   points="202.3,75.98 202.28,75.97 203.94,70.19 204.63,75.05 " />
			<polygon
   style="fill:#ff0000"
   id="polygon14"
   points="203.91,70.01 203.96,70.12 203.94,70.19 " />
			<polygon
   style="fill:#ff0000"
   id="polygon16"
   points="202.3,75.98 202.23,76.01 203.91,70.01 203.94,70.19 202.28,75.97 " />
			<path
   style="fill:#c9c62d"
   id="path18"
   d="m 187.27,44.89 16.09,39.63 -36.11,22.141 -4.65,-5.65 L 139,72.38 127.2,83.45 112.89,69.53 137.21,33.1 187.27,44.89 z m -28.19,42.83 -6.34,-7.68 0.01,0.28 -0.2,-0.23 0.24,6.48 6.24,1.199 -0.06,-0.069 0.11,0.02 z m -25.48,-38.34 1.46,-2.18 -0.029,0.01 -5.971,1.97 0.011,0.17 -0.04,0.02 0.479,6.24 4.09,-6.23 z" />
			<polygon
   style="fill:#f1d313"
   id="polygon20"
   points="123.98,129.52 102.88,115.23 127.2,83.45 139,72.38 162.6,101.01 162.59,101.02 " />
			<polygon
   style="fill:#ff0000"
   id="polygon22"
   points="158.89,87.68 158.97,87.7 159.03,87.77 " />
			<polygon
   style="fill:#ff0000"
   id="polygon24"
   points="153,86.38 158.89,87.68 159.03,87.77 152.79,86.57 " />
			<polygon
   style="fill:#ff0000"
   id="polygon26"
   points="154.71,84.89 152.75,80.54 152.75,80.32 158.97,87.7 158.89,87.68 " />
			<polygon
   style="fill:#ff0000"
   id="polygon28"
   points="153,86.38 154.71,84.89 158.89,87.68 " />
			<polygon
   style="fill:#ff0000"
   id="polygon30"
   points="153,86.38 152.9,86.36 152.75,80.54 154.71,84.89 " />
			<polygon
   style="fill:#ff0000"
   id="polygon32"
   points="152.55,80.09 152.75,80.54 152.9,86.36 153,86.38 152.79,86.57 " />
			<polygon
   style="fill:#ff0000"
   id="polygon34"
   points="152.75,80.32 152.75,80.54 152.55,80.09 " />
			<polygon
   style="fill:#f1d313"
   id="polygon36"
   points="112.89,69.53 97.87,54.53 73.2,72.74 69.62,78.1 45.06,55.68 60.08,37.97 49.02,27.76 96.08,0.25 142.21,16.32 137.21,33.1 " />
			<polygon
   style="fill:#ff0000"
   id="polygon38"
   points="129.58,55.4 131.19,50.81 135.03,47.21 133.6,49.38 " />
			<polygon
   style="fill:#ff0000"
   id="polygon40"
   points="129.08,49.4 129.07,49.35 135.03,47.21 131.19,50.81 " />
			<polygon
   style="fill:#ff0000"
   id="polygon42"
   points="129.51,55.61 129.58,55.4 133.6,49.38 " />
			<polygon
   style="fill:#ff0000"
   id="polygon44"
   points="129.53,55.48 129.08,49.4 131.19,50.81 129.58,55.4 " />
			<polygon
   style="fill:#ff0000"
   id="polygon46"
   points="129.51,55.61 129.03,49.37 129.08,49.4 129.53,55.48 129.58,55.4 " />
			<polygon
   style="fill:#ff0000"
   id="polygon48"
   points="129.03,49.37 129.07,49.35 129.08,49.4 " />
			<path
   style="fill:#c9c62d"
   id="path50"
   d="M 69.62,78.1 31.36,133.09 0.25,95.24 26,57.38 36.37,47.74 45.06,55.68 69.62,78.1 z m -7.52,1.13 -0.95,-6.25 -6.29,-0.591 0.05,0.051 -0.28,-0.03 7.44,6.96 -0.03,-0.2 0.06,0.06 z" />
			<polygon
   style="fill:#ff0000"
   id="polygon52"
   points="61.77,78.92 62.04,79.17 62.07,79.37 " />
			<polygon
   style="fill:#ff0000"
   id="polygon54"
   points="54.63,72.41 55.28,72.79 61.77,78.92 62.07,79.37 " />
			<polygon
   style="fill:#ff0000"
   id="polygon56"
   points="61.77,78.92 59.19,75.05 61.11,73.13 62.04,79.17 " />
			<polygon
   style="fill:#ff0000"
   id="polygon58"
   points="59.19,75.05 61.77,78.92 55.28,72.79 " />
			<polygon
   style="fill:#ff0000"
   id="polygon60"
   points="55.28,72.79 54.91,72.44 61.11,73.13 59.19,75.05 " />
			<polygon
   style="fill:#f1d313"
   id="polygon62"
   points="36.37,47.74 44.23,40.24 40.3,36.32 49.02,27.76 60.08,37.97 45.06,55.68 " />
			<polygon
   style="fill:#ff0000"
   id="polygon64"
   points="54.91,72.44 55.28,72.79 54.63,72.41 " />
			<polygon
   style="fill:#ff0000"
   id="polygon66"
   points="22.62,131.19 22.95,131.6 22.95,131.93 " />
			<polygon
   style="fill:#ff0000"
   id="polygon68"
   points="22.62,131.19 20.79,127.13 22.95,125.69 22.95,131.6 " />
			<polygon
   style="fill:#ff0000"
   id="polygon70"
   points="16.71,124.25 17.21,124.6 22.62,131.19 22.95,131.93 " />
			<polygon
   style="fill:#ff0000"
   id="polygon72"
   points="17.21,124.6 16.97,124.31 22.95,125.69 20.79,127.13 " />
			<polygon
   style="fill:#ff0000"
   id="polygon74"
   points="20.79,127.13 22.62,131.19 17.21,124.6 " />
			<polygon
   style="fill:#ff0000"
   id="polygon76"
   points="16.97,124.31 17.21,124.6 16.71,124.25 " />
		</g>
		<g
   id="g78">
			<polyline
   style="fill:none;stroke:#ff0000;stroke-width:0;stroke-miterlimit:10"
   id="polyline80"
   points="137.21,33.1 142.21,16.32 96.08,0.25      49.02,27.76 40.3,36.32 44.23,40.24 36.37,47.74 45.06,55.68 69.62,78.1 73.2,72.74 97.87,54.53 112.89,69.53 137.21,33.1    "
   stroke-miterlimit="10" />
			<polyline
   style="fill:none;stroke:#ff0000;stroke-width:0;stroke-miterlimit:10"
   id="polyline82"
   points="36.37,47.74 26,57.38 0.25,95.24      31.36,133.09 69.62,78.1    "
   stroke-miterlimit="10" />
			<polyline
   style="fill:none;stroke:#ff0000;stroke-width:0;stroke-miterlimit:10"
   id="polyline84"
   points="137.21,33.1 187.27,44.89 203.36,84.52      167.25,106.66 162.6,101.01 139,72.38 127.2,83.45 112.89,69.53    "
   stroke-miterlimit="10" />
			<polyline
   style="fill:none;stroke:#ff0000;stroke-width:0;stroke-miterlimit:10"
   id="polyline86"
   points="162.59,101.02 123.98,129.52      102.88,115.23 127.2,83.45    "
   stroke-miterlimit="10" />
			<polyline
   style="fill:none;stroke:#ff0000;stroke-width:0;stroke-miterlimit:10"
   id="polyline88"
   points="49.02,27.76 60.08,37.97 45.06,55.68         "
   stroke-miterlimit="10" />
			<polyline
   style="fill:none;stroke:#ff0000;stroke-width:0;stroke-miterlimit:10"
   id="polyline90"
   points="54.91,72.44 54.86,72.39 61.15,72.98      62.1,79.23    "
   stroke-miterlimit="10" />
			<line
   style="fill:none;stroke:#ff0000;stroke-width:0;stroke-miterlimit:10"
   id="line92"
   y2="79.169998"
   x2="62.040001"
   y1="79.230003"
   x1="62.099998"
   stroke-miterlimit="10" />
			<polyline
   style="fill:none;stroke:#ff0000;stroke-width:0;stroke-miterlimit:10"
   id="polyline94"
   points="16.97,124.31 16.79,124.09      22.96,125.47 23.11,131.79    "
   stroke-miterlimit="10" />
			<line
   style="fill:none;stroke:#ff0000;stroke-width:0;stroke-miterlimit:10"
   id="line96"
   y2="131.60001"
   x2="22.950001"
   y1="131.78999"
   x1="23.110001"
   stroke-miterlimit="10" />
			<polyline
   style="fill:none;stroke:#ff0000;stroke-width:0;stroke-miterlimit:10"
   id="polyline98"
   points="129.07,49.35 129.06,49.18      135.03,47.21 135.06,47.2    "
   stroke-miterlimit="10" />
			<line
   style="fill:none;stroke:#ff0000;stroke-width:0;stroke-miterlimit:10"
   id="line100"
   y2="49.380001"
   x2="133.60001"
   y1="47.200001"
   x1="135.06"
   stroke-miterlimit="10" />
			<line
   style="fill:none;stroke:#ff0000;stroke-width:0;stroke-miterlimit:10"
   id="line102"
   y2="80.040001"
   x2="152.74001"
   y1="80.32"
   x1="152.75"
   stroke-miterlimit="10" />
			<polyline
   style="fill:none;stroke:#ff0000;stroke-width:0;stroke-miterlimit:10"
   id="polyline104"
   points="152.74,80.04 159.08,87.72 158.97,87.7         "
   stroke-miterlimit="10" />
			<line
   style="fill:none;stroke:#ff0000;stroke-width:0;stroke-miterlimit:10"
   id="line106"
   y2="69.900002"
   x2="204.02"
   y1="70.120003"
   x1="203.96001"
   stroke-miterlimit="10" />
			<polyline
   style="fill:none;stroke:#ff0000;stroke-width:0;stroke-miterlimit:10"
   id="polyline108"
   points="204.02,69.9 207.77,79.13 207.74,79.11         "
   stroke-miterlimit="10" />
		</g>
	</g>
<text
   transform="matrix(1 0 0 1 26.1313 88.3291)"
   font-family="'MyriadPro-Regular'"
   font-size="6"
   id="text110">patio</text>

<text
   transform="matrix(1 0 0 1 81.9507 32.0581)"
   font-family="'MyriadPro-Regular'"
   font-size="6"
   id="text112">molino</text>

<text
   transform="matrix(1 0 0 1 18.4478 44.0352)"
   font-family="'MyriadPro-Regular'"
   font-size="6"
   id="text114">cuarto de maquila</text>

<text
   transform="matrix(1 0 0 1 158.1133 68.4883)"
   font-family="'MyriadPro-Regular'"
   font-size="6"
   id="text116">patio</text>

<text
   transform="matrix(1 0 0 1 121.7246 105.9561)"
   font-family="'MyriadPro-Regular'"
   font-size="6"
   id="text118">tienda</text>

</svg>